{
  "accessors": [
    {
      "bufferView": 2,
      "componentType": 5126,
      "count": 1236,
      "max": [
        4.872886657714844,
        8.053268432617188,
        7.8504486083984375
      ],
      "min": [
        -10.669815063476563,
        0.000621795654296875,
        -5.909141540527344
      ],
      "type": "VEC3"
    },
    {
      "bufferView": 2,
      "byteOffset": 14832,
      "componentType": 5126,
      "count": 1236,
      "max": [
        1.0,
        1.0,
        1.0
      ],
      "min": [
        -1.0,
        -1.0,
        -1.0
      ],
      "type": "VEC3"
    },
    {
      "bufferView": 1,
      "componentType": 5126,
      "count": 1236,
      "max": [
        0.9921875,
        0.9889402389526367
      ],
      "min": [
        0.0078125,
        0.0078125
      ],
      "type": "VEC2"
    },
    {
      "bufferView": 0,
      "componentType": 5125,
      "count": 3999,
      "type": "SCALAR"
    },
    {
      "bufferView": 2,
      "byteOffset": 29664,
      "componentType": 5126,
      "count": 774,
      "max": [
        1.4848130941390991,
        14.763427734375,
        -0.9956264495849609
      ],
      "min": [
        -10.561691284179688,
        9.527305603027344,
        -5.221076965332031
      ],
      "type": "VEC3"
    },
    {
      "bufferView": 2,
      "byteOffset": 38952,
      "componentType": 5126,
      "count": 774,
      "max": [
        0.9985870718955994,
        0.9999101758003235,
        0.9578507542610168
      ],
      "min": [
        -0.9298662543296814,
        -0.6516563892364502,
        -0.8340509533882141
      ],
      "type": "VEC3"
    },
    {
      "bufferView": 1,
      "byteOffset": 9888,
      "componentType": 5126,
      "count": 774,
      "max": [
        0.7670093774795532,
        0.9906177520751953
      ],
      "min": [
        0.4164489507675171,
        0.7977721095085144
      ],
      "type": "VEC2"
    },
    {
      "bufferView": 0,
      "byteOffset": 15996,
      "componentType": 5125,
      "count": 1800,
      "type": "SCALAR"
    },
    {
      "bufferView": 2,
      "byteOffset": 48240,
      "componentType": 5126,
      "count": 977,
      "max": [
        -7.808502197265625,
        10.235321044921875,
        8.022552490234375
      ],
      "min": [
        -10.668121337890625,
        0.000621795654296875,
        3.602497100830078
      ],
      "type": "VEC3"
    },
    {
      "bufferView": 2,
      "byteOffset": 59964,
      "componentType": 5126,
      "count": 977,
      "max": [
        1.0,
        1.0,
        1.0
      ],
      "min": [
        -1.0,
        -1.0,
        -1.0
      ],
      "type": "VEC3"
    },
    {
      "bufferView": 1,
      "byteOffset": 16080,
      "componentType": 5126,
      "count": 977,
      "max": [
        0.9921875,
        0.9783922433853149
      ],
      "min": [
        0.0078125,
        0.0078125
      ],
      "type": "VEC2"
    },
    {
      "bufferView": 0,
      "byteOffset": 23196,
      "componentType": 5125,
      "count": 1896,
      "type": "SCALAR"
    },
    {
      "bufferView": 2,
      "byteOffset": 71688,
      "componentType": 5126,
      "count": 456,
      "max": [
        2.508167266845703,
        13.902511596679688,
        7.9837646484375
      ],
      "min": [
        -10.681884765625,
        6.1914825439453125,
        -5.4099884033203125
      ],
      "type": "VEC3"
    },
    {
      "bufferView": 2,
      "byteOffset": 77160,
      "componentType": 5126,
      "count": 456,
      "max": [
        1.0,
        1.0,
        1.0
      ],
      "min": [
        -0.9999896883964539,
        -1.0,
        -1.0
      ],
      "type": "VEC3"
    },
    {
      "bufferView": 1,
      "byteOffset": 23896,
      "componentType": 5126,
      "count": 456,
      "max": [
        0.9921873807907104,
        0.9541499614715576
      ],
      "min": [
        0.0078125,
        0.0078125
      ],
      "type": "VEC2"
    },
    {
      "bufferView": 0,
      "byteOffset": 30780,
      "componentType": 5125,
      "count": 1023,
      "type": "SCALAR"
    },
    {
      "bufferView": 2,
      "byteOffset": 82632,
      "componentType": 5126,
      "count": 830,
      "max": [
        12.103500366210938,
        13.642990112304688,
        -0.6381082534790039
      ],
      "min": [
        6.520599365234375,
        0.000621795654296875,
        -5.921318054199219
      ],
      "type": "VEC3"
    },
    {
      "bufferView": 2,
      "byteOffset": 92592,
      "componentType": 5126,
      "count": 830,
      "max": [
        1.0,
        1.0,
        1.0
      ],
      "min": [
        -1.0,
        -1.0,
        -1.0
      ],
      "type": "VEC3"
    },
    {
      "bufferView": 1,
      "byteOffset": 27544,
      "componentType": 5126,
      "count": 830,
      "max": [
        0.9921875,
        0.9142603874206543
      ],
      "min": [
        0.0078125,
        0.0078125
      ],
      "type": "VEC2"
    },
    {
      "bufferView": 0,
      "byteOffset": 34872,
      "componentType": 5125,
      "count": 2100,
      "type": "SCALAR"
    },
    {
      "bufferView": 2,
      "byteOffset": 102552,
      "componentType": 5126,
      "count": 48,
      "max": [
        13.075125694274902,
        14.616336822509766,
        8.748929023742676
      ],
      "min": [
        -11.661263465881348,
        -0.6619023084640503,
        -6.79152774810791
      ],
      "type": "VEC3"
    },
    {
      "bufferView": 2,
      "byteOffset": 103128,
      "componentType": 5126,
      "count": 48,
      "max": [
        1.0,
        1.0,
        1.0
      ],
      "min": [
        -1.0,
        -1.0,
        -1.0
      ],
      "type": "VEC3"
    },
    {
      "bufferView": 1,
      "byteOffset": 34184,
      "componentType": 5126,
      "count": 48,
      "max": [
        0.9924798011779785,
        0.989100456237793
      ],
      "min": [
        0.007567852735519409,
        0.011136770248413086
      ],
      "type": "VEC2"
    },
    {
      "bufferView": 0,
      "byteOffset": 43272,
      "componentType": 5125,
      "count": 72,
      "type": "SCALAR"
    }
  ],
  "asset": {
    "extras": {
      "author": "Irina Kostina (https://sketchfab.com/irinaa1810k)",
      "license": "CC-BY-4.0 (http://creativecommons.org/licenses/by/4.0/)",
      "source": "https://sketchfab.com/3d-models/cozy-room-5f63d254de7b481b8ae0a8cd60a47dbf",
      "title": "Cozy room"
    },
    "generator": "Sketchfab-12.67.0",
    "version": "2.0"
  },
  "bufferViews": [
    {
      "buffer": 0,
      "byteLength": 43560,
      "name": "floatBufferViews",
      "target": 34963
    },
    {
      "buffer": 0,
      "byteLength": 34568,
      "byteOffset": 43560,
      "byteStride": 8,
      "name": "floatBufferViews",
      "target": 34962
    },
    {
      "buffer": 0,
      "byteLength": 103704,
      "byteOffset": 78128,
      "byteStride": 12,
      "name": "floatBufferViews",
      "target": 34962
    }
  ],
  "buffers": [
    {
      "byteLength": 181832,
      "uri": "scene.bin"
    }
  ],
  "extensionsUsed": [
    "KHR_materials_unlit"
  ],
  "images": [
    {
      "uri": "textures/Bed1_baseColor.jpeg"
    },
    {
      "uri": "textures/Leafs1_baseColor.png"
    },
    {
      "uri": "textures/Cupboard1_baseColor.jpeg"
    },
    {
      "uri": "textures/Accesor_baseColor.jpeg"
    },
    {
      "uri": "textures/Fireplace1_baseColor.jpeg"
    },
    {
      "uri": "textures/phong1_baseColor.jpeg"
    }
  ],
  "materials": [
    {
      "doubleSided": true,
      "extensions": {
        "KHR_materials_unlit": {}
      },
      "name": "Bed1",
      "pbrMetallicRoughness": {
        "baseColorTexture": {
          "index": 0
        },
        "metallicFactor": 0.0
      }
    },
    {
      "alphaCutoff": 0.5002850085502565,
      "alphaMode": "MASK",
      "doubleSided": true,
      "extensions": {
        "KHR_materials_unlit": {}
      },
      "name": "Leafs1",
      "pbrMetallicRoughness": {
        "baseColorTexture": {
          "index": 1
        },
        "metallicFactor": 0.0
      }
    },
    {
      "doubleSided": true,
      "extensions": {
        "KHR_materials_unlit": {}
      },
      "name": "Cupboard1",
      "pbrMetallicRoughness": {
        "baseColorTexture": {
          "index": 2
        },
        "metallicFactor": 0.0
      }
    },
    {
      "doubleSided": true,
      "extensions": {
        "KHR_materials_unlit": {}
      },
      "name": "Accesor",
      "pbrMetallicRoughness": {
        "baseColorTexture": {
          "index": 3
        },
        "metallicFactor": 0.0
      }
    },
    {
      "doubleSided": true,
      "extensions": {
        "KHR_materials_unlit": {}
      },
      "name": "Fireplace1",
      "pbrMetallicRoughness": {
        "baseColorTexture": {
          "index": 4
        },
        "metallicFactor": 0.0
      }
    },
    {
      "doubleSided": true,
      "extensions": {
        "KHR_materials_unlit": {}
      },
      "name": "phong1",
      "pbrMetallicRoughness": {
        "baseColorTexture": {
          "index": 5
        },
        "metallicFactor": 0.0
      }
    }
  ],
  "meshes": [
    {
      "name": "Bed_Bed1_0",
      "primitives": [
        {
          "attributes": {
            "NORMAL": 1,
            "POSITION": 0,
            "TEXCOORD_0": 2
          },
          "indices": 3,
          "material": 0,
          "mode": 4
        }
      ]
    },
    {
      "name": "Leafs_Leafs1_0",
      "primitives": [
        {
          "attributes": {
            "NORMAL": 5,
            "POSITION": 4,
            "TEXCOORD_0": 6
          },
          "indices": 7,
          "material": 1,
          "mode": 4
        }
      ]
    },
    {
      "name": "Cupboard_Cupboard1_0",
      "primitives": [
        {
          "attributes": {
            "NORMAL": 9,
            "POSITION": 8,
            "TEXCOORD_0": 10
          },
          "indices": 11,
          "material": 2,
          "mode": 4
        }
      ]
    },
    {
      "name": "Accesories_Accesor_0",
      "primitives": [
        {
          "attributes": {
            "NORMAL": 13,
            "POSITION": 12,
            "TEXCOORD_0": 14
          },
          "indices": 15,
          "material": 3,
          "mode": 4
        }
      ]
    },
    {
      "name": "Fireplace_Fireplace1_0",
      "primitives": [
        {
          "attributes": {
            "NORMAL": 17,
            "POSITION": 16,
            "TEXCOORD_0": 18
          },
          "indices": 19,
          "material": 4,
          "mode": 4
        }
      ]
    },
    {
      "name": "Walls_phong1_0",
      "primitives": [
        {
          "attributes": {
            "NORMAL": 21,
            "POSITION": 20,
            "TEXCOORD_0": 22
          },
          "indices": 23,
          "material": 5,
          "mode": 4
        }
      ]
    }
  ],
  "nodes": [
    {
      "children": [
        1
      ],
      "matrix": [
        1.0,
        0.0,
        0.0,
        0.0,
        0.0,
        2.220446049250313e-16,
        -1.0,
        0.0,
        0.0,
        1.0,
        2.220446049250313e-16,
        0.0,
        0.0,
        0.0,
        0.0,
        1.0
      ],
      "name": "Sketchfab_model"
    },
    {
      "children": [
        2
      ],
      "matrix": [
        0.009999999776482582,
        0.0,
        0.0,
        0.0,
        0.0,
        0.0,
        0.009999999776482582,
        0.0,
        0.0,
        -0.009999999776482582,
        0.0,
        0.0,
        0.0,
        0.0,
        0.0,
        1.0
      ],
      "name": "04d89c3c4e1e4c3dbf549a32851f7609.fbx"
    },
    {
      "children": [
        3
      ],
      "name": "RootNode"
    },
    {
      "children": [
        4,
        6,
        8,
        10,
        12,
        14
      ],
      "matrix": [
        12.347509327145557,
        0.0,
        12.34750932714556,
        0.0,
        0.0,
        17.46201515197754,
        0.0,
        0.0,
        -12.34750932714556,
        0.0,
        12.347509327145557,
        0.0,
        -2.654034591653264e-15,
        11.559992790222168,
        -2.887921564213858e-15,
        1.0
      ],
      "name": "All"
    },
    {
      "children": [
        5
      ],
      "name": "Bed"
    },
    {
      "mesh": 0,
      "name": "Bed_Bed1_0"
    },
    {
      "children": [
        7
      ],
      "name": "Leafs"
    },
    {
      "mesh": 1,
      "name": "Leafs_Leafs1_0"
    },
    {
      "children": [
        9
      ],
      "name": "Cupboard"
    },
    {
      "mesh": 2,
      "name": "Cupboard_Cupboard1_0"
    },
    {
      "children": [
        11
      ],
      "name": "Accesories"
    },
    {
      "mesh": 3,
      "name": "Accesories_Accesor_0"
    },
    {
      "children": [
        13
      ],
      "name": "Fireplace"
    },
    {
      "mesh": 4,
      "name": "Fireplace_Fireplace1_0"
    },
    {
      "children": [
        15
      ],
      "name": "Walls"
    },
    {
      "mesh": 5,
      "name": "Walls_phong1_0"
    }
  ],
  "samplers": [
    {
      "magFilter": 9729,
      "minFilter": 9987,
      "wrapS": 10497,
      "wrapT": 10497
    }
  ],
  "scene": 0,
  "scenes": [
    {
      "name": "Sketchfab_Scene",
      "nodes": [
        0
      ]
    }
  ],
  "textures": [
    {
      "sampler": 0,
      "source": 0
    },
    {
      "sampler": 0,
      "source": 1
    },
    {
      "sampler": 0,
      "source": 2
    },
    {
      "sampler": 0,
      "source": 3
    },
    {
      "sampler": 0,
      "source": 4
    },
    {
      "sampler": 0,
      "source": 5
    }
  ]
}
